<svg width="1032.24" height="832.63" xmlns="http://www.w3.org/2000/svg" xmlns:xlink="http://www.w3.org/1999/xlink" data-name="Layer 1">
 <defs>
  <linearGradient y2="0.50015" x2="1.00005" y1="0.50015" x1="-0.0001" id="fb7ae7e0-1793-4d3b-a6c6-7b51ed07a232">
   <stop stop-opacity="0.25" stop-color="gray" offset="0"/>
   <stop stop-opacity="0.12" stop-color="gray" offset="0.54"/>
   <stop stop-opacity="0.1" stop-color="gray" offset="1"/>
  </linearGradient>
  <linearGradient xlink:href="#fb7ae7e0-1793-4d3b-a6c6-7b51ed07a232" gradientTransform="matrix(-1, 0, 0, 1, 3342, 0)" y2="358.28" x2="3255.1" y1="358.28" x1="3013.29" id="26387a05-323e-43c3-b271-53af00551daf"/>
 </defs>
 <title>warning</title>
 <g>
  <title>Layer 1</title>
  <ellipse id="svg_1" opacity="0.1" fill="#f9a826" ry="416.32" rx="466.48" cy="416.32" cx="530.99"/>
  <ellipse id="svg_2" opacity="0.1" fill="#f9a826" ry="26.66" rx="172" cy="629.28" cx="172"/>
  <ellipse id="svg_3" opacity="0.1" fill="#f9a826" ry="13.82" rx="66.9" cy="769.13" cx="254.67"/>
  <ellipse id="svg_4" opacity="0.1" fill="#f9a826" ry="13.82" rx="66.9" cy="715.96" cx="711.8"/>
  <ellipse id="svg_5" opacity="0.1" fill="#f9a826" ry="18.43" rx="108.79" cy="699.75" cx="484.79"/>
  <ellipse id="svg_6" opacity="0.1" fill="#f9a826" ry="35.54" rx="226.91" cy="608.52" cx="805.34"/>
  <path id="svg_7" fill="#a8a8a8" d="m47.03,546.49a63.14,63.14 0 0 0 3.29,63.39c2,3 3.84,5.16 5.31,5.73c7.05,2.77 21.17,9.58 21.17,9.58l34,-13.36s5.52,-29.2 10.74,-54.27l0,0c3.56,-17.1 7,-32.27 8.41,-34.93c3.52,-6.55 0,-77.86 0,-77.86s-34,-2.28 -43.35,23.93l-4.09,8l-35.48,69.79z"/>
  <path id="svg_8" opacity="0.1" fill="#fff" d="m92.17,554.37c20.67,23.69 29.39,3.2 29.39,3.2l0,0l0,0c3.56,-17.1 7,-32.27 8.41,-34.93c3.52,-6.55 0,-77.86 0,-77.86s-34,-2.28 -43.35,23.93l-4.09,8c-2.62,20.97 -5.21,60.61 9.64,77.66z"/>
  <path id="svg_9" fill="#a8a8a8" d="m96.71,620.4l120,-13.86l21.41,-140.88l-16.19,-36.59a148.26,148.26 0 0 0 -28,-42.24c-8.15,-8.59 -18,-16.85 -28.36,-21a42.56,42.56 0 0 0 -4.33,-1.48a11.21,11.21 0 0 0 -10,1.77c-14.8,10.49 -20.09,55.09 -21.8,76.56a239.6,239.6 0 0 1 -3.57,26.29l-29.16,151.43z"/>
  <path id="svg_10" opacity="0.1" fill="#fff" d="m176.6,464.14l-25,61.5c13.1,-9.58 32.51,-61.75 32.51,-61.75l17.39,59.48l-13.86,-62.69a196.07,196.07 0 0 0 1.76,-41.14c-1.1,-15.74 -15.87,-41 -23.89,-53.72a42.56,42.56 0 0 0 -4.33,-1.48a11.21,11.21 0 0 0 -10,1.77c6.3,12.65 22.05,44.28 26.85,53.68c6.09,11.84 -1.43,44.35 -1.43,44.35z"/>
  <path id="svg_11" fill="#a8a8a8" d="m197.01,625.19l65.11,0a19.75,19.75 0 0 0 19.73,-20.75c-1.44,-27.92 -5.09,-77.7 -13.77,-109.3c-4.69,-17.05 -10.14,-26 -15.14,-30.41a14.77,14.77 0 0 0 -8.61,-4.05a11.3,11.3 0 0 0 -7,1.7c-12.09,11.59 -26.21,72.58 -26.21,72.58l-14.11,90.23z"/>
  <path id="svg_12" opacity="0.1" fill="#fff" d="m257.12,571.1c2.68,7.43 3.74,16 0,24.35l-14.51,7.17s-39,-16.53 -34.26,-50.41c0,0 1.28,-7 14.71,-6.46a38.07,38.07 0 0 1 34.06,25.35z"/>
  <path id="svg_13" opacity="0.1" fill="#fff" d="m241.62,482.04c-0.45,-11.88 6,-16 11.33,-17.31a14.77,14.77 0 0 0 -8.61,-4.05a22.86,22.86 0 0 0 -7.51,12l-13.6,66.29s19.15,-37.02 18.39,-56.93z"/>
  <path id="svg_14" fill="#a8a8a8" d="m179.88,534.46l32.24,44.1l5.59,36.4l-20.72,10.23l-29.87,6.6a28.71,28.71 0 0 1 -8.77,0.57l-81.51,-7.17l11.09,-25.71l38.3,-53.77l53.65,-11.25z"/>
  <path id="svg_15" opacity="0.1" fill="#fff" d="m167.4,519.32s22,1.51 13.74,39.31s-93.25,40.83 -93.25,40.83s18.06,-32 45.84,-54.93c3.12,-2.57 6.13,-5.25 9,-8.11c6.39,-6.39 18.61,-17.62 24.67,-17.1z"/>
  <path id="svg_16" opacity="0.1" d="m187.19,547.82s29.81,27.13 27,68.88"/>
  <path id="svg_17" opacity="0.1" d="m237.34,462.38s-31.28,41.6 -34.79,105.61"/>
  <path id="svg_18" opacity="0.1" d="m129.98,444.75s15.14,68.75 -22.66,120.57"/>
  <path id="svg_19" fill="#464353" d="m405.73,699.37l163.14,0a9.14,9.14 0 0 0 8,-13.47l-81.53,-151.48a9.13,9.13 0 0 0 -16.08,0l-81.57,151.48a9.14,9.14 0 0 0 8.04,13.47zm91.95,-27.68l-20.76,0l0,-20.75l20.76,0l0,20.75zm0,-34.59l-20.76,0l0,-41.51l20.76,0l0,41.51z"/>
  <path id="svg_20" opacity="0.1" d="m405.73,699.37l163.14,0a9.14,9.14 0 0 0 8,-13.47l-81.53,-151.48a9.13,9.13 0 0 0 -16.08,0l-81.57,151.48a9.14,9.14 0 0 0 8.04,13.47zm91.95,-27.68l-20.76,0l0,-20.75l20.76,0l0,20.75zm0,-34.59l-20.76,0l0,-41.51l20.76,0l0,41.51z"/>
  <path id="svg_21" fill="#e5aa14" d="m405.73,706.03667l163.14,0a9.14,9.14 0 0 0 8,-13.47l-81.53,-151.48a9.13,9.13 0 0 0 -16.08,0l-81.57,151.48a9.14,9.14 0 0 0 8.04,13.47zm91.95,-27.68l-20.76,0l0,-20.75l20.76,0l0,20.75zm0,-34.59l-20.76,0l0,-41.51l20.76,0l0,41.51z"/>
  <path id="svg_22" fill="url(#fb7ae7e0-1793-4d3b-a6c6-7b51ed07a232)" d="m316.12,622.79a11.2,11.2 0 0 0 -2.31,-1.12c-2.68,-1 -5.54,-1.26 -8.22,-2.22a11.77,11.77 0 0 1 -4.13,-2.44c-0.2,-0.2 -0.39,-0.4 -0.57,-0.61c1,-0.63 1.91,-1.26 2.9,-1.85a34.36,34.36 0 0 0 -12.06,-12c1.61,-2.37 5.24,-2.18 7.36,-4.09a7,7 0 0 0 2,-3.93c0.79,-3.93 -0.19,-8 -1.17,-11.87c-1.9,-7.57 -3.82,-15.19 -6.9,-22.35a88.07,88.07 0 0 1 -3.74,-9.06c-2.59,-8.62 -0.78,-18 -2.74,-26.81c-0.63,-2.83 -1.65,-5.75 -0.94,-8.55c1.09,-4.34 5.94,-6.91 7,-11.25c3.84,-15.45 4.53,-31.48 6.71,-47.25a60.81,60.81 0 0 0 0.81,-9.07c0,-3.19 -0.57,-6.35 -0.8,-9.53c-0.62,-8.93 1.17,-17.85 1.94,-26.77a28,28 0 0 1 3.63,8.95a36.13,36.13 0 0 1 0.21,8.88a41.71,41.71 0 0 1 -0.63,5.91c-0.49,2.32 -1.35,4.54 -1.92,6.86a21.21,21.21 0 0 0 0.95,13.76c1.36,3 4.35,5.78 7.46,4.88c2.15,-0.62 3.45,-2.76 4.41,-4.79c3,-6.36 4.67,-13.73 2.65,-20.49c-1.33,-4.5 -4.25,-8.57 -4.52,-13.27a34.3,34.3 0 0 1 0.44,-5.61c1.25,-10.86 -1.45,-21.77 -2.05,-32.69c-0.16,-2.89 0.1,-6.48 -0.55,-9.55c-0.08,-0.37 -0.17,-0.74 -0.28,-1.09a2.34,2.34 0 0 1 0.72,0.33a6.52,6.52 0 0 0 -0.14,-5.59a14.21,14.21 0 0 1 -0.94,-1.76c-0.38,-1 -0.31,-2.16 -0.78,-3.12a13.31,13.31 0 0 0 -1,-1.45c-1.29,-1.87 -1.36,-4.29 -1.39,-6.56q-0.23,-17.76 -1,-35.48c-0.27,-6 -0.61,-12.14 -2.71,-17.77a26.64,26.64 0 0 0 -9.4,-12.47a21.9,21.9 0 0 0 -2.11,-1.32a7.32,7.32 0 0 0 0.6,-2.7a6.46,6.46 0 0 0 0,-0.88l-0.06,-0.5l0,0a21.1,21.1 0 0 0 -2,-6a16.86,16.86 0 0 1 -1.91,-6.56a10.19,10.19 0 0 1 0.07,-1.24l0,0c0.34,-2.88 1.84,-5.58 2.37,-8.46a14.51,14.51 0 0 0 0.22,-2.71c0,-0.31 0,-0.63 0,-0.95a0.08,0.08 0 0 0 0,0a27.26,27.26 0 0 0 -3.21,-10.1c-0.5,-1 -1,-2 -1.56,-3c-0.26,-1.87 -0.55,-3.74 -0.84,-5.6c-0.16,-1.08 -0.33,-2.16 -0.56,-3.23q-0.17,-0.8 -0.39,-1.56c1.55,-1.46 0.65,-3.6 -0.34,-5.58c-1.91,-3.76 -1.51,-8.25 -2.32,-12.39a37.44,37.44 0 0 0 -2.94,-8.32a18.54,18.54 0 0 0 -3.19,-5.24a19.56,19.56 0 0 0 -4.13,-3a13.15,13.15 0 0 0 -4.1,-1.85c-0.91,-0.18 -1.84,-0.17 -2.74,-0.38a8.68,8.68 0 0 1 -1.68,-0.61a11.43,11.43 0 0 0 -3.59,-1.31a8,8 0 0 0 -3.46,0.66a12.73,12.73 0 0 1 -3.72,1c-0.45,0 -0.93,0 -1.41,0a3.13,3.13 0 0 0 -1.91,0.46a7.22,7.22 0 0 0 -0.82,0.84a11.07,11.07 0 0 1 -2.41,1.65a23.75,23.75 0 0 0 -11.66,20.3a10.06,10.06 0 0 1 -0.29,3.29c-0.29,0.84 -0.86,1.57 -1.1,2.43a6.82,6.82 0 0 0 -0.11,2.28c0.08,1.17 0.2,2.33 0.33,3.5l0,0a7.36,7.36 0 0 0 -1.46,3.23l0,0a4.41,4.41 0 0 0 -0.09,0.62l0,0.08l0,0c-0.11,2.09 0.92,4 1.52,6a21.32,21.32 0 0 1 -0.3,11.77c-0.73,2.63 -1.77,5.35 -2,8l0,0c0,0.06 0,0.12 0,0.18a9.67,9.67 0 0 0 0.46,4c0.33,0.91 0.82,1.76 1.12,2.68c1.06,3.26 -0.48,6.68 -2.52,9.54l0,0c-0.32,0.45 -0.65,0.88 -1,1.3l0.05,0l-0.05,0.05l2.08,1.47c-0.61,0.32 -1.22,0.67 -1.84,1a18.92,18.92 0 0 0 -6.78,2.51a27.56,27.56 0 0 0 -5.5,3.66a23.33,23.33 0 0 0 -4.34,6a75.41,75.41 0 0 0 -3.68,7.76a24.3,24.3 0 0 0 -1.88,6.73c-0.86,1.83 -1.57,3.8 -2.36,5.57c-0.4,0.91 -0.79,1.82 -1.18,2.73l-34.42,-84.28l-5.34,2.22l0.42,1l-1.11,0.47l1.51,3.68c-0.22,0.15 -0.44,0.3 -0.65,0.46l-0.28,0.22l-0.56,0.44l-0.28,0.23l-0.57,0.48l-0.21,0.18l-0.71,0.65l0,0c-0.76,0.69 -1.49,1.42 -2.2,2.15l-1.83,1.89l-0.35,0.37l-0.61,0.62l-0.34,0.35l-0.87,0.87l-0.06,0.06l-0.54,0.52l-0.34,0.32c-0.14,0.14 -0.29,0.27 -0.44,0.4l-0.42,0.39l-0.68,0.58l-0.2,0.18l-0.93,0.74a26.07,26.07 0 0 1 -4,2.57c-5.47,2.83 -11.26,5.2 -16.6,8.23a47.8,47.8 0 0 0 -8.22,5.76c-3.53,3.13 -6.52,7 -10.61,9.27l-0.45,0.24c-7.24,3.72 -15.77,1.49 -24,1.33c-1.23,0 -2.44,0 -3.64,0.08c-6.68,0.52 -12.79,3.23 -18.7,6.53c-4.16,2.33 -8.22,4.95 -12.3,7.32c-2.58,1.49 -5.17,3.11 -7.77,4.77c-6.6,4.19 -13.28,8.59 -20.19,11.76c-6.42,2.94 -13,4.81 -20,4.45l-0.09,0c-0.67,0 -1.34,-0.09 -2,-0.17c-0.65,5.25 3.55,9.48 6.35,14.1a14.29,14.29 0 0 1 2.37,6.68a12,12 0 0 1 -0.2,2.68c-0.56,3.24 -2.06,6.42 -1.65,9.68a11.21,11.21 0 0 0 2.13,5.26c1.78,2.54 4.25,4.8 5.93,7.45c2.54,4 3.2,8.87 4.19,13.58a28.57,28.57 0 0 0 3.29,9.41c2.16,3.48 5.46,6 8.56,8.67c0.57,0.49 1.13,1 1.67,1.5c0.4,0.36 0.79,0.74 1.16,1.13c3.63,3.71 6.33,9.43 4.14,14.07c-0.07,0.16 -0.15,0.3 -0.23,0.45a4,4 0 0 0 0.55,0.33c2.79,1.36 6.29,-0.82 8.58,-3.13c1.13,-1.13 2.2,-2.33 3.24,-3.55c2.79,-3.1 5.35,-6.46 8,-9.68c0.72,-0.87 1.44,-1.72 2.18,-2.56a37,37 0 0 1 9.88,-8a36.29,36.29 0 0 1 6.06,-2.46c3.1,-1 6.3,-1.74 9.41,-2.72a77.31,77.31 0 0 0 12.39,-5.2a190.55,190.55 0 0 0 20,-12.4l1,-0.65a34.28,34.28 0 0 0 5.95,-4.75c0.32,-0.35 0.63,-0.71 0.92,-1.08c1.56,-2 2.57,-4.37 4,-6.45a20.75,20.75 0 0 1 5.61,-5.41c6.17,-4.15 14.36,-5.73 21.69,-8l0.08,0a84.3,84.3 0 0 0 34.17,-20.29l5.48,13.42q-0.85,2.38 -1.61,4.81c-1.22,4 -2.22,8.12 -4.61,11.5a8.58,8.58 0 0 0 -1.74,3.09a10,10 0 0 1 -0.41,2.48c-0.34,0.68 -1.05,1.13 -1.34,1.83c-0.42,1 0.13,2.29 -0.43,3.23a5.08,5.08 0 0 1 -0.95,1c-1.43,1.27 -1.81,3.27 -1.81,5.09a17.83,17.83 0 0 1 -0.45,5.52a13.15,13.15 0 0 1 1.29,-0.67a6,6 0 0 0 -0.11,1a11.14,11.14 0 0 0 0.35,2.81a22.19,22.19 0 0 0 2.92,5.84a41.5,41.5 0 0 0 3.13,4.5a41,41 0 0 0 6.62,5.92l10.08,7.78l-1,4.21c-2.2,8.82 -4.42,17.75 -4.53,26.85a115.7,115.7 0 0 0 0.81,12.89l0.87,8.78c0.7,7.07 1.4,14.14 2.17,21.21c0.49,4.47 1,9 2.58,13.22c2.38,6.41 -0.25,13.65 0.76,20.43c0.8,5.31 2.38,10.8 0.79,15.93c-0.64,2 -1.76,3.92 -2.58,5.9c-2.05,4.92 -2.26,10.39 -2.43,15.72a66.81,66.81 0 0 0 0.51,14c0.86,4.78 2.76,9.47 2.39,14.32c-0.52,6.89 -5.56,12.78 -6.17,19.67c-0.49,5.49 1.9,10.8 4.47,15.67c1.89,3.59 -0.75,8.23 -1.75,12.18c-2,7.75 1.32,15.85 5.37,22.72a1.12,1.12 0 0 0 0.51,0.54c0.46,0.17 0.89,-0.29 1.19,-0.68s0.39,-0.48 0.6,-0.71c0,0.31 0.06,0.62 0.08,0.92c0,0.65 0.05,1.3 0.05,2a20.1,20.1 0 0 0 1.36,7.4a13.07,13.07 0 0 0 0.56,1.34a6.18,6.18 0 0 0 1,1.61a6.11,6.11 0 0 0 4,1.68c3.32,0.36 6.66,-0.33 10,-0.62c3.52,-0.3 7.05,-0.17 10.58,-0.25a1.53,1.53 0 0 0 0.79,-0.17a1.35,1.35 0 0 0 0.45,-0.72a8,8 0 0 0 0.17,-3.94a27.94,27.94 0 0 0 -0.75,-3.13c-0.47,-1.65 -0.9,-3.31 -1.31,-5c-0.08,-0.31 -0.15,-0.62 -0.22,-0.93l0.16,0.07q3.23,-7.26 6.47,-14.52c1.09,-2.45 2.2,-5.1 1.66,-7.73c-0.39,-1.88 -1.59,-3.47 -2.44,-5.19c-2,-4.06 -2.08,-8.8 -2.11,-13.34l-0.12,-25.72c5,-6.36 8.09,-13.93 10,-21.83a70.61,70.61 0 0 1 0.59,34a31.67,31.67 0 0 0 -0.95,5.18c-0.39,7.13 5.16,13.17 6.64,20.15a4.54,4.54 0 0 1 0.11,1.64a6.15,6.15 0 0 1 -0.82,1.9c-2.66,4.87 -2.37,10.75 -2,16.29l1.17,0.19a3.1,3.1 0 0 0 1.24,1.22l0,0a6.12,6.12 0 0 0 1.55,0.64a38.18,38.18 0 0 0 5.83,0.89c2.82,0.28 5.65,0.56 8.48,0.74c1.12,0.07 2.24,0.13 3.36,0.16a33.55,33.55 0 0 1 4.7,0.33a34,34 0 0 1 5,1.45c7.29,2.44 15.45,3.83 22.51,0.79a10.14,10.14 0 0 0 4.11,-2.91a4.84,4.84 0 0 0 -1.21,-7.52l-0.08,0.03zm-96.72,-285.07c1.06,2.11 2.12,4.21 3,6.4c1.73,4.24 2.78,9 1.68,13.42c-0.32,1.3 -2.41,2.3 -2.4,3.64a3,3 0 0 0 -0.16,0.31l-6.53,-16a57.08,57.08 0 0 1 4.41,-7.77zm-7.17,34a27.67,27.67 0 0 1 -3.54,-6.11c-0.12,-0.27 -0.25,-0.53 -0.37,-0.8a2.4,2.4 0 0 0 0.95,-0.71c1,-1.26 0.46,-3.1 0.61,-4.72a10.2,10.2 0 0 1 1.59,-4l6.13,15q-0.93,2.44 -1.74,4.93a35,35 0 0 1 -3.63,-3.59z"/>
  <path id="svg_23" fill="#464353" d="m233.81,236.72c-0.11,2.09 0.93,4 1.54,6a21.23,21.23 0 0 1 -0.29,11.74c-1.12,4 -3,8.23 -1.57,12.14c0.33,0.92 0.83,1.76 1.13,2.68c1.24,3.8 -1.06,7.8 -3.58,10.91l9.89,6.93a11.37,11.37 0 0 0 5,2.39c1.85,0.22 4,-0.77 4.38,-2.59c0.13,-0.62 0,-1.27 0.12,-1.9a5.16,5.16 0 0 1 2.77,-3.84a9.06,9.06 0 0 1 4.79,-0.89c6.07,0.33 11.23,4.32 16.75,6.88a67.38,67.38 0 0 0 11.27,3.74c2.19,0.57 4.62,1.09 6.6,0s2.89,-3.62 2.74,-5.91a19.33,19.33 0 0 0 -2.1,-6.51a16.56,16.56 0 0 1 -1.93,-6.55c0,-3.36 1.84,-6.42 2.46,-9.72c0.87,-4.69 -0.9,-9.46 -3.06,-13.72s-4.78,-8.36 -5.83,-13a19,19 0 0 0 -1.09,-4.11a9.36,9.36 0 0 0 -2,-2.68c-3.71,-3.67 -9,-5.41 -14.18,-5.79s-10.41,0.47 -15.55,1.36a32.51,32.51 0 0 0 -5.77,1.37a36.65,36.65 0 0 0 -7.59,4.11c-2.34,1.62 -4.75,3.99 -4.9,6.96z"/>
  <g id="svg_24" opacity="0.1">
   <path id="svg_25" d="m291.29,269.89c0,0.3 0,0.6 0.06,0.89c0.31,-2.93 1.85,-5.68 2.4,-8.61a14.22,14.22 0 0 0 0.19,-3.56c0,0.52 -0.1,1 -0.19,1.56c-0.63,3.3 -2.5,6.36 -2.46,9.72z"/>
   <path id="svg_26" d="m236.02,246.72a17.91,17.91 0 0 0 -0.67,-6a34.78,34.78 0 0 1 -1.45,-4.66c0,0.21 -0.08,0.41 -0.09,0.62c-0.11,2.09 0.93,4 1.54,6a16.89,16.89 0 0 1 0.67,4.04z"/>
   <path id="svg_27" d="m295.26,284.45a5.72,5.72 0 0 1 -2.68,4.41c-2,1.09 -4.41,0.57 -6.6,0a66.52,66.52 0 0 1 -11.27,-3.75c-5.52,-2.55 -10.68,-6.54 -16.75,-6.87a9.06,9.06 0 0 0 -4.79,0.89a5.16,5.16 0 0 0 -2.77,3.84c-0.07,0.63 0,1.28 -0.12,1.9c-0.39,1.82 -2.53,2.81 -4.38,2.59a11.37,11.37 0 0 1 -5,-2.39l-8.89,-6.24c-0.33,0.45 -0.66,0.89 -1,1.3l9.89,6.94a11.37,11.37 0 0 0 5,2.39c1.85,0.22 4,-0.77 4.38,-2.59c0.13,-0.62 0,-1.27 0.12,-1.9a5.16,5.16 0 0 1 2.77,-3.84a9.06,9.06 0 0 1 4.79,-0.89c6.07,0.33 11.23,4.32 16.75,6.87a66.52,66.52 0 0 0 11.27,3.75c2.19,0.57 4.62,1.09 6.6,0s2.89,-3.62 2.74,-5.91c-0.01,-0.17 -0.04,-0.33 -0.06,-0.5z"/>
   <path id="svg_28" d="m234.62,269.23a7.74,7.74 0 0 1 0.27,1.23a7.25,7.25 0 0 0 -0.27,-3.23c-0.3,-0.92 -0.8,-1.76 -1.13,-2.68a8.36,8.36 0 0 1 -0.46,-2.07a9.4,9.4 0 0 0 0.46,4.07c0.33,0.92 0.83,1.77 1.13,2.68z"/>
  </g>
  <path id="svg_29" fill="#464353" d="m246.36,648.68a1.31,1.31 0 0 1 -0.46,0.72a1.53,1.53 0 0 1 -0.79,0.17c-3.56,0.08 -7.12,0 -10.67,0.25c-3.36,0.29 -6.73,1 -10.08,0.62a5.17,5.17 0 0 1 -5,-3.29a13.07,13.07 0 0 1 -0.56,-1.34a19.91,19.91 0 0 1 -1.37,-7.4c0,-0.67 0,-1.32 0,-2a15.17,15.17 0 0 0 -0.29,-2.18a3.31,3.31 0 0 1 0.1,-2.53c1.42,-2.59 4.85,-3.11 7.49,-3.31a61.85,61.85 0 0 1 18.25,1.34c0.47,2.3 1,4.58 1.56,6.86q0.62,2.51 1.32,5a28,28 0 0 1 0.76,3.13a8,8 0 0 1 -0.26,3.96z"/>
  <path id="svg_30" opacity="0.06" d="m246.36,648.68a1.31,1.31 0 0 1 -0.46,0.72a1.53,1.53 0 0 1 -0.79,0.17c-3.56,0.08 -7.12,0 -10.67,0.25c-3.36,0.29 -6.73,1 -10.08,0.62a5.17,5.17 0 0 1 -5,-3.29a13.07,13.07 0 0 1 -0.56,-1.34l1.28,0c4.21,0 8.43,-0.15 12.64,-0.15c1.27,0 2.55,-0.06 3.81,-0.21s2.29,-0.36 3.44,-0.5a47.13,47.13 0 0 1 5.18,-0.21l1.42,0a8,8 0 0 1 -0.21,3.94z"/>
  <path id="svg_31" fill="#464353" d="m320.01,630.11a10.23,10.23 0 0 1 -4.14,2.91c-7.12,3 -15.35,1.65 -22.7,-0.79a34.58,34.58 0 0 0 -5.05,-1.45a34,34 0 0 0 -4.73,-0.33c-1.13,0 -2.26,-0.09 -3.39,-0.16c-2.86,-0.18 -5.71,-0.46 -8.55,-0.74a38.63,38.63 0 0 1 -5.88,-0.89a6.25,6.25 0 0 1 -1.57,-0.64l0,0a2.41,2.41 0 0 1 -1.44,-2.15c0.08,-1.27 1.4,-2 2.56,-2.55c10.29,-4.45 21.47,-6.38 32.57,-7.93a13.05,13.05 0 0 0 3.27,-1c1.25,-0.5 1.38,0.32 2,1.24a7.71,7.71 0 0 0 1,1.18a11.9,11.9 0 0 0 4.16,2.44c2.7,1 5.59,1.27 8.29,2.22a11.35,11.35 0 0 1 2.33,1.12a4.82,4.82 0 0 1 1.22,7.52l0.05,0z"/>
  <path id="svg_32" opacity="0.06" d="m320.01,630.11a10.23,10.23 0 0 1 -4.14,2.91c-7.12,3 -15.35,1.65 -22.7,-0.79a34.58,34.58 0 0 0 -5.05,-1.45a34,34 0 0 0 -4.73,-0.33c-1.13,0 -2.26,-0.09 -3.39,-0.16c0.92,-0.87 1.86,-1.72 2.82,-2.54a8.4,8.4 0 0 1 2.37,-1.56a6.86,6.86 0 0 1 3.37,-0.23c5.72,0.79 10.86,4.8 16.63,4.45a20.46,20.46 0 0 0 7.65,-2.47a13.35,13.35 0 0 0 5,-3.56a5.77,5.77 0 0 0 0.93,-1.79a4.82,4.82 0 0 1 1.22,7.52l0.02,0z"/>
  <path id="svg_33" fill="#fbbebe" d="m318,456.32c-1,2 -2.28,4.17 -4.44,4.79c-3.14,0.9 -6.16,-1.92 -7.53,-4.88a21.08,21.08 0 0 1 -1,-13.76c0.57,-2.31 1.44,-4.53 1.93,-6.85a41.72,41.72 0 0 0 0.64,-5.91a36.13,36.13 0 0 0 -0.21,-8.88c-1.61,-8.59 -9,-15 -11.46,-23.44c-1.24,-4.21 -1.18,-8.69 -1.11,-13.08a13.45,13.45 0 0 1 0.34,-3.3a5.15,5.15 0 0 1 0.3,-0.86c1.65,-3.66 6.54,-4.16 9.94,-6.29c1.88,-1.17 6.15,-4.94 7.73,-1.5a11.31,11.31 0 0 1 0.76,2.39c0.65,3.06 0.39,6.65 0.55,9.54c0.61,10.92 3.33,21.82 2.07,32.68a34.09,34.09 0 0 0 -0.44,5.6c0.27,4.7 3.21,8.77 4.56,13.27c2.08,6.77 0.41,14.14 -2.63,20.48z"/>
  <path id="svg_34" opacity="0.1" d="m313.94,374.77a3.37,3.37 0 0 0 -2.3,0l-6.77,2a41.92,41.92 0 0 0 -6.91,2.51a16.21,16.21 0 0 0 -2.75,1.71a5.15,5.15 0 0 1 0.3,-0.86c1.65,-3.66 6.54,-4.16 9.94,-6.29c1.88,-1.17 6.15,-4.94 7.73,-1.5a11.31,11.31 0 0 1 0.76,2.43z"/>
  <path id="svg_35" fill="#464353" d="m314.38,374.01a3.06,3.06 0 0 0 -2.74,-0.22l-6.77,2a41.92,41.92 0 0 0 -6.91,2.51a15.88,15.88 0 0 0 -3.29,2.14c-3.16,-5.49 -4,-12 -4.58,-18.3c-0.32,-3.67 -0.56,-7.35 -0.7,-11a49.34,49.34 0 0 1 0.16,-7.88c0.38,-3 1.25,-5.93 1.79,-8.91a40.66,40.66 0 0 0 0.62,-5.28a51.63,51.63 0 0 0 -0.53,-11.59a71.84,71.84 0 0 0 -2.78,-12c-0.64,-1.79 -1.41,-3.52 -2.11,-5.28l-0.24,-0.62a72.9,72.9 0 0 1 -3.09,-9.91c-0.32,-1.38 -0.34,-2.83 -1.4,-3.77a18.82,18.82 0 0 1 3,-0.12q0.3,0 0.6,0a22.43,22.43 0 0 1 11.44,4a26.73,26.73 0 0 1 9.48,12.54c2.11,5.63 2.46,11.75 2.73,17.76q0.81,17.72 1,35.46c0,2.27 0.1,4.69 1.4,6.56a13.39,13.39 0 0 1 1,1.45c0.47,1 0.4,2.11 0.78,3.12a15.77,15.77 0 0 0 0.95,1.76a6.45,6.45 0 0 1 0.19,5.58z"/>
  <path id="svg_36" fill="#fbbebe" d="m247.82,256.63c-1,-0.33 -2,-0.68 -3,-1l2.08,0.16a4.2,4.2 0 0 1 0.92,0.84z"/>
  <path id="svg_37" fill="#fbbebe" d="m288.77,292.72c-0.2,0.68 -0.4,1.36 -0.62,2a38.22,38.22 0 0 1 -1.85,4.81a22.38,22.38 0 0 1 -4.73,6.86a6.28,6.28 0 0 1 -2.36,1.56a7.5,7.5 0 0 1 -2.32,0.22q-4,0 -8,-0.12a28.42,28.42 0 0 1 -6.18,-0.61a22.07,22.07 0 0 1 -6.3,-2.84c-7.47,-4.62 -13.61,-11.66 -16.24,-20c-0.33,-1.06 -0.56,-2.33 0.17,-3.16a3.87,3.87 0 0 1 2.55,-0.87l0.12,0a16.11,16.11 0 0 0 6.09,-2.09a6.26,6.26 0 0 0 2.78,-2.84a7.66,7.66 0 0 0 -0.09,-4.42l-2.22,-10.08a10.44,10.44 0 0 0 -1.77,-4.49c0.65,0.23 1.3,0.44 2,0.62c6.18,1.67 12.94,0.66 19,2.85c2.32,0.85 4.64,2.38 5.34,4.76c1.17,4 -2.74,8.15 -1.62,12.15c0.75,2.72 3.52,4.29 6,5.56l1.67,0.85l4.63,2.35l0.64,0.32l0.1,0.05c1.46,0.74 3,1.66 3.51,3.23a6,6 0 0 1 -0.3,3.33z"/>
  <path id="svg_38" opacity="0.1" d="m300.97,316.2a21.59,21.59 0 0 1 -1.84,7.4a30.23,30.23 0 0 0 -3.15,13c-0.77,13.5 -5.9,29.57 1.45,40.91c0.18,0.28 0.36,0.56 0.53,0.85a15.88,15.88 0 0 0 -3.29,2.14c-3.16,-5.49 -4,-12 -4.58,-18.3c-0.32,-3.67 -0.56,-7.35 -0.7,-11a49.34,49.34 0 0 1 0.16,-7.88c0.38,-3 1.25,-5.93 1.79,-8.91a40.66,40.66 0 0 0 0.62,-5.28a51.63,51.63 0 0 0 -0.53,-11.59a71.84,71.84 0 0 0 -2.78,-12c-0.64,-1.79 -1.41,-3.52 -2.11,-5.28l-0.24,-0.62a22.38,22.38 0 0 1 -4.73,6.86a6.28,6.28 0 0 1 -2.36,1.56a7.5,7.5 0 0 1 -2.32,0.22q-4,0 -8,-0.12a28.42,28.42 0 0 1 -6.18,-0.61a22.07,22.07 0 0 1 -6.3,-2.84c-7.47,-4.62 -13.61,-11.66 -16.24,-20c-0.33,-1.06 -0.56,-2.33 0.17,-3.16a3.87,3.87 0 0 1 2.55,-0.87l0.12,0l9,11.13a18,18 0 0 1 2.6,3.89a2.32,2.32 0 0 0 0.8,1.19a2.05,2.05 0 0 0 1,0.18c8.45,0 19.71,0 28.16,0a7.31,7.31 0 0 0 -1.24,-4.21c-0.26,0.06 -0.61,0.08 -0.07,-0.08a28.34,28.34 0 0 0 -3.1,-9.27a6.45,6.45 0 0 0 -0.31,-0.58a10.66,10.66 0 0 1 -1.48,-3.24a5.4,5.4 0 0 1 3.28,0c1.23,0.53 1.87,1.86 2.41,3.09c0.46,1 0.92,2.07 1.33,3.12c0,0.11 0.1,0.23 0.14,0.34a22.64,22.64 0 0 1 1.66,6.49c0.06,0.82 0.26,1.86 0.94,2.13a0.89,0.89 0 0 0 0.34,0.08a3.78,3.78 0 0 1 4.09,1a9,9 0 0 1 2,3.94a21.56,21.56 0 0 0 1.42,4.24c1.29,2.46 -0.68,3.56 1.65,5.07a8.12,8.12 0 0 1 2.74,2.46a7.68,7.68 0 0 1 0.6,4.55z"/>
  <path id="svg_39" opacity="0.1" d="m242.89,629.77c0.47,2.3 1,4.58 1.56,6.86l-0.06,0.14c-4.57,-2 -9.25,-4.09 -14.24,-4.53c-4.63,-0.4 -9.66,0.85 -12.81,4.21a15.17,15.17 0 0 0 -0.29,-2.18a3.31,3.31 0 0 1 0.1,-2.53c1.42,-2.59 4.85,-3.11 7.49,-3.31a61.85,61.85 0 0 1 18.25,1.34z"/>
  <path id="svg_40" opacity="0.1" d="m282.28,294.69c0.47,0 0.3,0 0.07,0.08s-0.61,0.08 -0.07,-0.08z"/>
  <path id="svg_41" opacity="0.1" d="m304.01,616.81a86.86,86.86 0 0 0 -12.52,9.69a13.11,13.11 0 0 1 -3.95,2.89a11.54,11.54 0 0 1 -4.76,0.49a162,162 0 0 1 -18.78,-1.86l0,0a2.41,2.41 0 0 1 -1.44,-2.15c0.08,-1.27 1.4,-2 2.56,-2.55c10.29,-4.45 21.47,-6.38 32.57,-7.93a13.05,13.05 0 0 0 3.27,-1c1.25,-0.5 1.38,0.32 2,1.24a7.71,7.71 0 0 0 1.05,1.18z"/>
  <path id="svg_42" fill="#f9a826" d="m230.64,283.09c1.47,1.31 3.15,2.37 4.64,3.64c4,3.39 6.52,8.13 9,12.75a8.34,8.34 0 0 1 -4.59,0.31a32.92,32.92 0 0 0 0.39,13.37a12.4,12.4 0 0 0 -4.47,5.55a37.1,37.1 0 0 0 -1.46,7q-2.16,15.61 -4.34,31.22a4.84,4.84 0 0 1 -1,2.81a5.39,5.39 0 0 0 -0.76,0.75a4.15,4.15 0 0 0 -0.35,2.15c-0.06,0.73 -0.54,1.6 -1.27,1.5a1.58,1.58 0 0 1 -0.89,-0.58a20.42,20.42 0 0 1 -2,-2.48c-5.9,11.32 -8.74,23.52 -11.86,35.9c-2.23,8.82 -4.46,17.74 -4.57,26.84a115.68,115.68 0 0 0 0.81,12.88l0.88,8.78c0.71,7.06 1.42,14.13 2.19,21.19c0.5,4.48 1,9 2.61,13.22c2.4,6.41 -0.26,13.64 0.76,20.42c0.8,5.31 2.39,10.8 0.79,15.92c-0.64,2.05 -1.76,3.92 -2.6,5.9c-2.06,4.92 -2.27,10.39 -2.45,15.72a66,66 0 0 0 0.52,14c0.86,4.79 2.79,9.48 2.41,14.32c-0.53,6.89 -5.61,12.78 -6.23,19.66c-0.49,5.49 1.92,10.79 4.51,15.66c1.91,3.59 -0.75,8.23 -1.76,12.18c-2,7.74 1.33,15.84 5.41,22.71a1.09,1.09 0 0 0 0.52,0.54c0.47,0.17 0.89,-0.29 1.2,-0.68c3.07,-3.94 8.51,-5.43 13.5,-5s9.66,2.49 14.24,4.53l6.49,-14.45c1.1,-2.45 2.22,-5.1 1.67,-7.73c-0.39,-1.88 -1.6,-3.47 -2.46,-5.19c-2,-4.06 -2.1,-8.79 -2.12,-13.34l-0.12,-25.7c5.06,-6.36 8.15,-13.92 10.1,-21.82a70,70 0 0 1 0.6,34a30.85,30.85 0 0 0 -1,5.18c-0.39,7.13 5.2,13.16 6.69,20.14a4.33,4.33 0 0 1 0.12,1.64a6.18,6.18 0 0 1 -0.83,1.9c-2.68,4.86 -2.39,10.75 -2,16.29a162.33,162.33 0 0 0 21.21,2.27a11.92,11.92 0 0 0 4.76,-0.49a13.14,13.14 0 0 0 3.95,-2.9a87.22,87.22 0 0 1 14.87,-11.25a34.62,34.62 0 0 0 -12.15,-12c1.61,-2.37 5.28,-2.18 7.42,-4.08a7,7 0 0 0 2,-3.94c0.8,-3.92 -0.19,-8 -1.18,-11.85c-1.92,-7.58 -3.85,-15.19 -7,-22.35a85.88,85.88 0 0 1 -3.76,-9.05c-2.62,-8.62 -0.79,-18 -2.77,-26.81c-0.64,-2.82 -1.67,-5.73 -0.95,-8.54c1.1,-4.33 6,-6.9 7.08,-11.24c3.87,-15.45 4.56,-31.46 6.76,-47.23a60.68,60.68 0 0 0 0.79,-9.11c0,-3.19 -0.57,-6.35 -0.8,-9.53c-0.9,-12.73 3.17,-25.43 2.13,-38.15a48,48 0 0 0 -7.52,-22c-7.35,-11.35 -2.22,-27.41 -1.45,-40.91a30.08,30.08 0 0 1 3.14,-13a21.33,21.33 0 0 0 1.85,-7.4a7.65,7.65 0 0 0 -0.56,-4.67a7.89,7.89 0 0 0 -2.73,-2.46c-2.33,-1.52 -0.36,-2.62 -1.65,-5.08a21.34,21.34 0 0 1 -1.42,-4.24a8.92,8.92 0 0 0 -2,-3.93a3.78,3.78 0 0 0 -4.09,-1c-0.95,0 -1.21,-1.26 -1.29,-2.21c-0.27,-3.48 -1.71,-6.75 -3.12,-9.95c-0.54,-1.23 -1.18,-2.56 -2.41,-3.09a5.51,5.51 0 0 0 -3.29,0a10.63,10.63 0 0 0 1.49,3.25a28.24,28.24 0 0 1 3.4,9.84c-1,0.3 1,0 0,0a7,7 0 0 1 1.31,4.29c-8.44,0 -19.7,0 -28.15,0a2,2 0 0 1 -1,-0.18a2.4,2.4 0 0 1 -0.81,-1.19a17.33,17.33 0 0 0 -2.6,-3.88l-9.9,-12.21a2.5,2.5 0 0 0 -0.85,-0.77a2.3,2.3 0 0 0 -1.25,0c-3.21,0.47 -5.58,1.81 -8.38,3.44z"/>
  <path id="svg_43" opacity="0.1" d="m266.17,448.53a9.54,9.54 0 0 1 4.87,1.26a4.91,4.91 0 0 1 2.42,4.22c-0.11,1.89 -1.56,3.39 -2.61,5a13.4,13.4 0 0 0 -1.54,3.16a1.27,1.27 0 0 0 -0.08,0.81c0.12,0.38 0.53,0.57 0.88,0.74a7.51,7.51 0 0 1 4.41,6.56c-0.09,3.9 -3.9,7.06 -3.69,11a22.62,22.62 0 0 0 0.42,2.44a18.64,18.64 0 0 1 -1.35,9.89c-1.21,3.14 -2.86,6.09 -4.16,9.2c-3.51,8.45 -4.27,17.81 -4,27c0.21,6.24 -2,12.18 -4,18.12a260.46,260.46 0 0 0 0.9,-36c-0.14,-3.26 -0.55,-6.34 -0.4,-9.61c0.24,-5.19 3.14,-9.91 3.88,-15c0.42,-2.91 0.14,-5.87 0.21,-8.81c0.14,-6 1.77,-11.92 1.88,-17.94c0.14,-4.25 -0.25,-8.63 1.96,-12.04z"/>
  <path id="svg_44" fill="#464353" d="m224.44,285.23a27.42,27.42 0 0 0 -5.54,3.66a23.6,23.6 0 0 0 -4.38,6a76.64,76.64 0 0 0 -3.71,7.76c-1.41,3.44 -2.58,7.25 -1.61,10.84c0.88,3.25 3.37,5.78 5.09,8.67s2.73,6.28 4.05,9.45c1.76,4.23 4.17,8.17 5.91,12.41s2.79,9 1.69,13.41c-0.32,1.3 -2.43,2.31 -2.43,3.64c0,2.2 3.18,4.59 5.29,5.23c2.43,0.75 5.08,-0.37 7.07,-2c3.65,-2.89 5.87,-7.22 7.51,-11.58c2.64,-7 4.05,-14.43 5.32,-21.81c0.92,-5.42 1.78,-10.85 2.27,-16.31c0.45,-4.92 0.59,-10 -0.71,-14.72a25,25 0 0 0 -6.83,-11.36c-2.6,-2.5 -6.86,-5.86 -10.64,-5.95c-2.99,-0.01 -5.79,1.25 -8.35,2.66z"/>
  <path id="svg_45" fill="#fbbebe" d="m252.87,405.78a4.78,4.78 0 0 1 -2.23,3.33a13.13,13.13 0 0 1 -3.81,1.56c-2.68,0.78 -5.52,1.5 -8.23,0.81a16.52,16.52 0 0 1 -5.78,-3.29l-30.28,-23.18a40.89,40.89 0 0 1 -6.67,-5.92a42.63,42.63 0 0 1 -3.16,-4.49a22,22 0 0 1 -2.94,-5.84a10.69,10.69 0 0 1 -0.36,-2.81a5.29,5.29 0 0 1 0.64,-2.57c0.73,-1.22 2.29,-1.47 3.57,-1.81a37.46,37.46 0 0 1 13.17,-1a1.79,1.79 0 0 1 1.78,1.21c0.67,1.23 1.25,2.51 1.85,3.79a27.4,27.4 0 0 0 3.57,6.11a51.54,51.54 0 0 0 4.45,4.29c3.2,3 5.82,6.6 9.23,9.36c3.95,3.19 8.75,5.1 13.25,7.45s8.94,5.4 11.2,9.95a5.83,5.83 0 0 1 0.75,3.05z"/>
  <path id="svg_46" opacity="0.1" d="m287.92,244.06a24.76,24.76 0 1 1 -0.69,-5.8a24.66,24.66 0 0 1 0.69,5.8z"/>
  <path id="svg_47" fill="#fbbebe" d="m287.92,243.06a24.76,24.76 0 1 1 -0.69,-5.8a24.66,24.66 0 0 1 0.69,5.8z"/>
  <path id="svg_48" opacity="0.1" d="m210.42,365.53c-1.14,0.73 -2.83,0.49 -4.24,0.17c-5.56,-1.24 -11.7,-2.13 -16.77,0.25a5.29,5.29 0 0 1 0.64,-2.57c0.73,-1.22 2.29,-1.47 3.57,-1.81a37.46,37.46 0 0 1 13.17,-1a1.79,1.79 0 0 1 1.78,1.21c0.67,1.19 1.25,2.47 1.85,3.75z"/>
  <path id="svg_49" fill="#464353" d="m199.97,331.86c-1.23,4 -2.24,8.11 -4.65,11.5a8.5,8.5 0 0 0 -1.76,3.08a9.6,9.6 0 0 1 -0.41,2.48c-0.34,0.68 -1.06,1.13 -1.35,1.83c-0.43,1 0.13,2.29 -0.44,3.23a4.8,4.8 0 0 1 -0.95,1c-1.36,1.26 -1.7,3.27 -1.73,5.13s0.15,3.76 -0.46,5.51c5.28,-3.15 12,-2.21 18,-0.87c1.67,0.37 3.74,0.65 4.82,-0.69s0.46,-3.1 0.61,-4.71c0.2,-2.1 1.64,-3.84 2.53,-5.75c1,-2.15 1.34,-4.55 2.11,-6.79c1.59,-4.71 5,-8.55 7.19,-13a12.49,12.49 0 0 0 1.42,-4.94a14.74,14.74 0 0 0 -1.71,-6.41a87.68,87.68 0 0 0 -7.4,-13.21c-1.27,-1.87 -3.46,-5.33 -5.43,-2.34c-1.6,2.41 -2.6,5.48 -3.78,8.12a148.62,148.62 0 0 0 -6.61,16.83z"/>
  <path id="svg_50" fill="#464353" d="m290.2,293.04a20.21,20.21 0 0 1 -16.18,-6.39a2.48,2.48 0 0 1 -0.72,-1.17a2.35,2.35 0 0 1 0.46,-1.64c1.2,-1.85 3.27,-3.07 4.23,-5.06s0.63,-4.28 0.72,-6.46c0.16,-3.91 1.7,-7.78 1.83,-11.63a12.15,12.15 0 0 0 -0.22,-2.94a18.43,18.43 0 0 1 -0.84,-4.43c0.13,-2.93 2.77,-5.21 3.21,-8.1c0.57,-3.68 -2.48,-6.88 -5.55,-9a33.07,33.07 0 0 0 -7.56,-3.91a24.61,24.61 0 0 0 -5.08,-1.23a19.8,19.8 0 0 0 -9.57,1.07a15.63,15.63 0 0 0 -3.56,1.9a4.82,4.82 0 0 0 -1.59,1.65a5.37,5.37 0 0 0 -0.42,2.39c-0.06,4.09 0.4,8.44 -1.55,12c-1,1.91 -2.7,3.46 -3.53,5.48a9.11,9.11 0 0 0 -0.63,2.63a26.5,26.5 0 0 0 -0.15,2.82c-0.06,5.27 0,10.83 2.68,15.4a40.15,40.15 0 0 1 2.57,4.31a4.91,4.91 0 0 1 -0.25,4.79a5.45,5.45 0 0 1 -2,1.5a16,16 0 0 1 -12.79,0.46a16.21,16.21 0 0 0 3.78,-18.08a10.67,10.67 0 0 1 -1.38,-4a10.15,10.15 0 0 1 1,-3.66a20,20 0 0 0 0.61,-11.72c-0.61,-2.38 -1.67,-4.68 -1.86,-7.13a21.57,21.57 0 0 1 0.24,-5.54a18,18 0 0 1 12.33,-14.19c0.51,-0.17 1,-0.33 1.56,-0.47a33.26,33.26 0 0 1 7.39,-0.79c5.55,-0.18 11.18,-0.34 16.53,1.11a22.18,22.18 0 0 1 8.56,4.4a15.45,15.45 0 0 1 4.14,5.47a19,19 0 0 1 1.17,3.78c0.23,1.07 0.4,2.15 0.57,3.23c1.21,7.69 2.42,15.53 1.13,23.21c-0.51,3 -1.4,6 -1.8,9.06c-0.97,7.05 0.78,14.06 2.52,20.88z"/>
  <circle id="svg_51" fill="#fff" r="1.86" cy="301.06" cx="254.67"/>
  <circle id="svg_52" fill="#fff" r="1.86" cy="300.18" cx="286.06"/>
  <path id="svg_53" opacity="0.1" d="m254.67,207.06l-4,-7.55a7.31,7.31 0 0 1 0.83,-0.84a3.17,3.17 0 0 1 1.93,-0.46l1.24,8.85z"/>
  <path id="svg_54" opacity="0.1" d="m265.7,197.86l-4.53,6.7l-2.58,-7.35a8.18,8.18 0 0 1 3.49,-0.66a11.6,11.6 0 0 1 3.62,1.31z"/>
  <g id="svg_55" opacity="0.1">
   <path id="svg_56" d="m248.5,283.54a5.45,5.45 0 0 1 -2,1.5a16.07,16.07 0 0 1 -11.37,0.95a15.57,15.57 0 0 1 -1.42,1.51a16,16 0 0 0 12.79,-0.46a5.45,5.45 0 0 0 2,-1.5a4.31,4.31 0 0 0 0.64,-3.46a3.55,3.55 0 0 1 -0.64,1.46z"/>
   <path id="svg_57" d="m237.65,250.05a19.7,19.7 0 0 1 0.57,4a19.93,19.93 0 0 0 -0.57,-6c-0.61,-2.38 -1.67,-4.68 -1.86,-7.13c0,-0.31 0,-0.62 -0.05,-0.94a22.31,22.31 0 0 0 0.05,2.94c0.19,2.45 1.25,4.75 1.86,7.13z"/>
   <path id="svg_58" d="m289.41,263.13a43.75,43.75 0 0 0 0.54,-8a41.68,41.68 0 0 1 -0.54,6c-0.51,3 -1.4,6 -1.8,9.06a31.56,31.56 0 0 0 -0.23,4.95a29.52,29.52 0 0 1 0.23,-2.95c0.4,-3.06 1.29,-6.03 1.8,-9.06z"/>
   <path id="svg_59" d="m237.45,267.42a16.44,16.44 0 0 1 -1.26,-3.09a4.52,4.52 0 0 0 -0.12,1.1a10.67,10.67 0 0 0 1.38,4a15.11,15.11 0 0 1 1.25,5.3a15.5,15.5 0 0 0 -1.25,-7.31z"/>
   <path id="svg_60" d="m280.32,257.71a13.07,13.07 0 0 1 0.19,1.38c0,-0.15 0,-0.29 0,-0.44a12.15,12.15 0 0 0 -0.22,-2.94c-0.22,-1.05 -0.58,-2.09 -0.75,-3.15a4.43,4.43 0 0 0 -0.09,0.72a18.43,18.43 0 0 0 0.87,4.43z"/>
   <path id="svg_61" d="m274.02,284.61a5.27,5.27 0 0 1 -0.43,-0.51a2.07,2.07 0 0 0 -0.29,1.34a2.48,2.48 0 0 0 0.72,1.17a20.21,20.21 0 0 0 16.18,6.39c-0.17,-0.66 -0.34,-1.31 -0.5,-2a20.18,20.18 0 0 1 -15.68,-6.39z"/>
   <path id="svg_62" d="m282.67,243.32a0.43,0.43 0 0 1 0,-0.11c0.57,-3.68 -2.48,-6.88 -5.55,-9a33.07,33.07 0 0 0 -7.56,-3.91a24.61,24.61 0 0 0 -5.08,-1.23a19.8,19.8 0 0 0 -9.57,1.07a15.63,15.63 0 0 0 -3.56,1.9a4.82,4.82 0 0 0 -1.59,1.65a5.37,5.37 0 0 0 -0.42,2.39c0,0.69 0,1.38 0,2.08l0,-0.08a5.37,5.37 0 0 1 0.42,-2.39a4.82,4.82 0 0 1 1.59,-1.65a15.63,15.63 0 0 1 3.56,-1.9a19.8,19.8 0 0 1 9.57,-1.07a24.61,24.61 0 0 1 5.08,1.23a33.07,33.07 0 0 1 7.56,3.91c2.55,1.72 5.06,4.2 5.55,7.11z"/>
   <path id="svg_63" d="m247.81,248.11c-1,1.91 -2.7,3.46 -3.53,5.48a9.11,9.11 0 0 0 -0.63,2.63a26.5,26.5 0 0 0 -0.15,2.82c0,0.85 0,1.71 0,2.57c0,-0.19 0,-0.38 0,-0.57a26.5,26.5 0 0 1 0.15,-2.82a9.11,9.11 0 0 1 0.63,-2.63c0.83,-2 2.49,-3.57 3.53,-5.48c1.61,-3 1.58,-6.45 1.55,-9.88a16.68,16.68 0 0 1 -1.55,7.88z"/>
  </g>
  <path id="svg_64" opacity="0.1" d="m287.71,236.73a2.91,2.91 0 0 1 -0.48,0.53a4.58,4.58 0 0 1 -1.17,0.7c-2.91,1.26 -2.79,-2.85 -4.31,-4.26a5.17,5.17 0 0 0 -3.38,-1q-4.39,-0.22 -8.79,-0.39c-4.89,-0.18 -9.77,-0.27 -14.65,-0.16q-3.51,0.06 -7,0.29c-2.7,0.18 -5.6,0.53 -7.9,1.81a8.37,8.37 0 0 0 -2.11,1.65c-0.55,0.6 -1.13,1.36 -1.89,1.5a18,18 0 0 1 12.33,-14.19a24.75,24.75 0 0 1 34,4.25a15.45,15.45 0 0 1 4.14,5.47a19,19 0 0 1 1.21,3.8z"/>
  <path id="svg_65" fill="#fed253" d="m286.06,235.96c-2.91,1.26 -2.79,-2.85 -4.31,-4.26a5.17,5.17 0 0 0 -3.38,-1a266.53,266.53 0 0 0 -30.44,-0.26c-3.61,0.24 -7.57,0.78 -10,3.46c-0.62,0.68 -1.27,1.56 -2.2,1.53c-0.31,-2 -0.53,-4.08 -0.68,-6.13a6.82,6.82 0 0 1 0.12,-2.3c0.25,-0.86 0.82,-1.59 1.11,-2.43a9.74,9.74 0 0 0 0.3,-3.28a23.7,23.7 0 0 1 11.66,-20.16a10.59,10.59 0 0 0 2.43,-1.64a7.31,7.31 0 0 1 0.83,-0.84a3.17,3.17 0 0 1 1.93,-0.46c0.48,0 1,0 1.42,0a12.91,12.91 0 0 0 3.75,-1a8.18,8.18 0 0 1 3.49,-0.66a11.6,11.6 0 0 1 3.62,1.31a8.77,8.77 0 0 0 1.69,0.61c0.91,0.21 1.85,0.2 2.76,0.38a13.47,13.47 0 0 1 4.14,1.84a19.75,19.75 0 0 1 4.16,3a18.41,18.41 0 0 1 3.22,5.24a37.53,37.53 0 0 1 3,8.32c0.81,4.14 0.41,8.62 2.33,12.38c1.17,2.36 2.24,4.98 -0.95,6.35z"/>
  <path id="svg_66" opacity="0.1" d="m235.37,232.82s20.73,-18.86 51.6,-3.22c0,0 -34.85,-7.93 -51.6,3.22z"/>
  <path id="svg_67" fill="url(#26387a05-323e-43c3-b271-53af00551daf)" transform="translate(-83.88 -33.68)" d="m93.37,362.87c-2.82,-4.62 -7.06,-8.85 -6.4,-14.09c7.76,0.89 15.12,-1 22.23,-4.29s13.71,-7.56 20.37,-11.75c2.62,-1.65 5.23,-3.27 7.83,-4.77c4.12,-2.36 8.21,-5 12.4,-7.31c6,-3.3 12.12,-6 18.86,-6.52a34.4,34.4 0 0 1 3.67,-0.09c8.3,0.16 16.9,2.39 24.2,-1.33l0.45,-0.24c4.14,-2.27 7.15,-6.13 10.7,-9.26a47.79,47.79 0 0 1 8.29,-5.76c5.39,-3 11.23,-5.4 16.74,-8.23a25.39,25.39 0 0 0 4,-2.56l0.94,-0.75l0.21,-0.18c0.23,-0.19 0.46,-0.38 0.68,-0.58l0.43,-0.38l0.44,-0.4l0.34,-0.32l0.55,-0.52l0.06,-0.07l0.87,-0.86l0.35,-0.35l0.61,-0.63l0.36,-0.36c0.61,-0.63 1.22,-1.27 1.84,-1.89s1.46,-1.46 2.21,-2.15l0,0l0.72,-0.64l0.21,-0.18l0.58,-0.48l0.27,-0.23l0.57,-0.44l0.28,-0.22c0.28,-0.21 0.57,-0.41 0.86,-0.61a6.26,6.26 0 0 1 0.84,-0.49l-1.87,-4.53l5.38,-2.22l74.2,180.05l-5.39,2.22l-42.44,-103l-0.3,0.3a85.2,85.2 0 0 1 -35.09,20.88l-0.08,0c-7.39,2.23 -15.66,3.81 -21.88,7.95a21,21 0 0 0 -5.65,5.41c-1.46,2.08 -2.48,4.45 -4,6.45c-0.29,0.37 -0.61,0.73 -0.93,1.07a34.77,34.77 0 0 1 -6,4.76l-0.95,0.65a194.48,194.48 0 0 1 -20.1,12.39a79.3,79.3 0 0 1 -12.49,5.2c-3.13,1 -6.36,1.73 -9.49,2.72a37.16,37.16 0 0 0 -6.11,2.46c-5.3,2.77 -9.37,7.11 -13.22,11.74c-3.37,4.06 -6.57,8.36 -10.27,12.06c-2.32,2.3 -5.85,4.48 -8.65,3.13l-0.57,-0.33c0.09,-0.15 0.16,-0.3 0.24,-0.46c2.21,-4.63 -0.51,-10.35 -4.17,-14.06c-0.38,-0.39 -0.77,-0.77 -1.17,-1.13s-1.12,-1 -1.69,-1.5c-3.13,-2.69 -6.46,-5.19 -8.63,-8.66a28.25,28.25 0 0 1 -3.32,-9.41c-1,-4.71 -1.67,-9.56 -4.23,-13.57c-1.68,-2.65 -4.18,-4.91 -6,-7.45a11.35,11.35 0 0 1 -2.2,-5.14c-0.41,-3.25 1.1,-6.43 1.67,-9.67a12.07,12.07 0 0 0 0.21,-2.68a14.19,14.19 0 0 0 -2.37,-6.7z"/>
  <rect id="svg_68" transform="rotate(157.6 606.05 546.3)" fill="#d6d8e1" height="191.47" width="5.73" y="808.84999" x="890.74999"/>
  <path id="svg_69" fill="#f86d70" d="m19.97,360.2c2.51,3.95 3.18,8.71 4.15,13.34a28.1,28.1 0 0 0 3.27,9.26c2.14,3.41 5.41,5.87 8.48,8.51c0.56,0.49 1.12,1 1.66,1.48c0.39,0.35 0.78,0.73 1.15,1.1c3.6,3.65 6.27,9.28 4.1,13.83a3.81,3.81 0 0 1 -0.23,0.45a4.57,4.57 0 0 0 0.55,0.32c2.76,1.34 6.23,-0.8 8.51,-3.07c3.64,-3.64 6.79,-7.86 10.1,-11.85c3.78,-4.56 7.79,-8.83 13,-11.55a36,36 0 0 1 6,-2.42c3.07,-1 6.25,-1.71 9.33,-2.67a78.53,78.53 0 0 0 12.28,-5.11a192.53,192.53 0 0 0 19.8,-12.19l0.94,-0.64a34.35,34.35 0 0 0 5.9,-4.67c0.32,-0.34 0.63,-0.69 0.92,-1.06c1.54,-2 2.55,-4.29 4,-6.34a20.66,20.66 0 0 1 5.56,-5.32c6.12,-4.07 14.24,-5.63 21.51,-7.82l0.08,0a83.94,83.94 0 0 0 34.5,-20.53a5.62,5.62 0 0 0 1.73,-2.54c0.31,-1.41 -0.45,-2.81 -1.18,-4.05c-0.85,-1.46 -1.68,-2.92 -2.5,-4.4a196.49,196.49 0 0 1 -9.86,-20.73c-0.63,-1.56 -1.24,-3.11 -1.83,-4.68q-2.27,-6 -4.14,-12.17c-0.41,-1.36 -0.81,-2.73 -1.19,-4.1c-0.07,-0.26 -0.15,-0.54 -0.22,-0.84c-1.66,-6.67 -3.88,-22.28 -10.72,-17.61a39.57,39.57 0 0 0 -5.65,4.91c-1.33,1.35 -2.63,2.74 -4,4.08a40.44,40.44 0 0 1 -3.53,3.09a25.93,25.93 0 0 1 -4,2.52c-5.43,2.78 -11.17,5.11 -16.46,8.09a46.79,46.79 0 0 0 -8.16,5.66c-3.49,3.08 -6.45,6.88 -10.52,9.11l-0.44,0.24c-7.18,3.65 -15.63,1.46 -23.8,1.3a35.91,35.91 0 0 0 -3.6,0.09c-6.63,0.5 -12.69,3.16 -18.55,6.41c-4.12,2.28 -8.14,4.86 -12.19,7.19c-2.56,1.47 -5.12,3.06 -7.7,4.69c-6.54,4.12 -13.17,8.44 -20,11.56c-7,3.18 -14.23,5.08 -21.86,4.21c-0.65,5.15 3.51,9.31 6.29,13.85a13.75,13.75 0 0 1 2.35,6.57a11.61,11.61 0 0 1 -0.19,2.63c-0.56,3.19 -2,6.31 -1.64,9.52a11.05,11.05 0 0 0 2.15,5.03c1.74,2.49 4.19,4.72 5.85,7.32z"/>
  <path id="svg_70" fill="#fbbebe" d="m223.28,381.03s8.76,7.64 17.64,11.71s3,18.67 3,18.67s-9.41,2.16 -16,-7s-4.64,-23.38 -4.64,-23.38z"/>
  <path id="svg_71" fill="#444176" d="m695.32,511.08s-23.2,30.53 -42.45,30.78s-30.55,12.86 -21.41,20.74s108.74,-4.5 108.74,-4.5s0.94,-37.52 -7.69,-43s-37.19,-4.02 -37.19,-4.02z"/>
  <path id="svg_72" fill="#444176" d="m944.77,547.73s3.55,24.18 -7.42,40.67s19.82,22.85 19.82,22.85s22.37,6.23 24,-15.87s1.1,-39 -1,-40.8s-3.85,-14.23 -3.85,-14.23l-31.55,7.38z"/>
  <path id="svg_73" fill="#a8a8a8" d="m593.57,593.4s-0.81,-78.21 76.58,-110l17.97,-34.19l8.62,-21a51.1,51.1 0 0 1 36.09,-30.46l13.94,-3.13l4.31,-18.16a51.08,51.08 0 0 1 40.81,-38.54a142.91,142.91 0 0 1 25.7,-2.4a22.12,22.12 0 0 1 18.79,11l0,0s73.32,-0.81 76.57,39.11c0,0 7.34,36.65 17.93,43.17c0,0 17.92,-4.07 35.84,22l19.55,66.8s51.32,48.06 35.84,92c0,0 -21.18,30.14 -128.71,9.77c0,0 -114.86,35 -176,-13c-0.01,0.06 -101.83,19.61 -123.83,-12.97z"/>
  <path id="svg_74" opacity="0.1" stroke-miterlimit="10" stroke="#000" fill="none" d="m644.89,581.18s16.3,-22.81 15.48,-39.11s3.84,-56 3.84,-56"/>
  <path id="svg_75" opacity="0.1" stroke-miterlimit="10" stroke="#000" fill="none" d="m704.36,520.08s16.29,-30.14 14.66,-46.43c0,0 17.11,-31 30.14,-28.52"/>
  <path id="svg_76" opacity="0.1" stroke-miterlimit="10" stroke="#000" fill="none" d="m793.97,434.54s44.8,-16.29 47.25,-29.32"/>
  <path id="svg_77" opacity="0.1" stroke-miterlimit="10" stroke="#000" fill="none" d="m810.26,472.02s47.25,-21.18 47.25,-26.89l23.61,0s34.22,44.81 30.15,64.36"/>
  <path id="svg_78" opacity="0.1" stroke-miterlimit="10" stroke="#000" fill="none" d="m865.66,504.6s-45.62,-3.26 -61.92,9.78s-45.62,19.55 -45.62,19.55s-17.11,36.66 -23.63,43.17s-17.11,29.33 -17.11,29.33"/>
  <path id="svg_79" opacity="0.1" stroke-miterlimit="10" stroke="#000" fill="none" d="m865.66,547.78s4.88,17.1 11.4,26.88s16.29,44.8 16.29,44.8"/>
  <path id="svg_80" opacity="0.1" stroke-miterlimit="10" stroke="#000" fill="none" d="m942.23,597.47s10.34,28.77 19.43,29.05"/>
  <path id="svg_81" opacity="0.1" stroke-miterlimit="10" stroke="#000" fill="none" d="m874.5,473.98s26.86,7.26 38.09,24.85s45.53,33.54 45.53,33.54"/>
  <path id="svg_82" opacity="0.1" stroke-miterlimit="10" stroke="#000" fill="none" d="m886.02,387.32s0,37.47 10.59,37.47s34.22,4.07 34.22,4.07"/>
  <path id="svg_83" opacity="0.1" stroke-miterlimit="10" stroke="#000" fill="none" d="m834.12,342.82s-2.71,64.73 -16.56,81.49"/>
  <g id="svg_84" opacity="0.05">
   <path id="svg_85" d="m984.59,516.82l-19.55,-66.8c-17.92,-26.07 -35.84,-22 -35.84,-22c-10.59,-6.52 -17.92,-43.18 -17.92,-43.18c-3.26,-39.92 -76.58,-39.1 -76.58,-39.1l0,0a22.12,22.12 0 0 0 -18.83,-11c-3.46,0 -7,0.11 -10.54,0.4q3,0.3 5.75,0.85l5.7,9.78s73.31,-0.82 76.57,39.1c0,0 7.34,36.66 17.93,43.18c0,0 17.92,-4.08 35.84,22l19.55,66.8s51.32,48.06 35.84,92c0,0 -10.45,14.87 -53.92,16.67c58.61,2.15 71.84,-16.67 71.84,-16.67c15.48,-43.97 -35.84,-92.03 -35.84,-92.03z"/>
   <path id="svg_86" d="m697.84,605.61a380.38,380.38 0 0 1 -52.19,5.71c20.41,0.78 41.64,-1.43 55.32,-3.31c-1.06,-0.81 -2.1,-1.59 -3.13,-2.4z"/>
   <path id="svg_87" d="m873.8,618.65a334.57,334.57 0 0 1 -76.92,12.16c37.55,1.36 73.12,-6.47 87.78,-10.23c-3.54,-0.59 -7.13,-1.26 -10.86,-1.93z"/>
  </g>
  <path id="svg_88" fill="#a8a8a8" d="m222.85,745.71s22.41,-0.69 29.16,-5.5s34.46,-10.55 36.14,-2.84s33.67,38.35 8.37,38.56s-58.77,-3.94 -65.51,-8.05s-8.16,-22.17 -8.16,-22.17z"/>
  <path id="svg_89" opacity="0.2" d="m296.98,773.24c-25.3,0.21 -58.78,-3.94 -65.52,-8c-5.13,-3.13 -7.18,-14.35 -7.86,-19.52l-0.75,0s1.42,18.07 8.16,22.17s40.22,8.25 65.51,8.05c7.31,-0.06 9.83,-2.66 9.69,-6.51c-1.01,2.32 -3.8,3.77 -9.23,3.81z"/>
  <path id="svg_90" fill="#a8a8a8" d="m769.19,689.51s-26.39,-5.28 -33.42,-12.32s-38.7,-19.34 -42.22,-10.55s-47.49,38.7 -17.59,44s70.36,7 79.16,3.52s14.07,-24.65 14.07,-24.65z"/>
  <path id="svg_91" opacity="0.2" d="m675.96,707.32c29.91,5.27 70.36,7 79.16,3.51c6.69,-2.68 11.35,-15.55 13.19,-21.54l0.88,0.19s-5.28,21.1 -14.07,24.62s-49.25,1.76 -79.16,-3.52c-8.63,-1.52 -11.1,-5.1 -10.17,-9.62c0.74,2.98 3.75,5.25 10.17,6.36z"/>
  <path id="svg_92" opacity="0.1" fill="#f9a826" d="m516.5,114.85l-6.28,0a4.4,4.4 0 0 0 0,-8.8l-50.88,0a4.4,4.4 0 0 0 0,8.8l6.28,0a4.4,4.4 0 0 0 0,8.79l-8.79,0a4.4,4.4 0 0 0 0,8.8l50.88,0a4.4,4.4 0 0 0 0,-8.8l8.79,0a4.4,4.4 0 1 0 0,-8.79z"/>
  <path id="svg_93" opacity="0.1" fill="#f9a826" d="m714.12,269.66l-6.28,0a4.4,4.4 0 0 0 0,-8.79l-50.93,0a4.4,4.4 0 1 0 0,8.79l6.28,0a4.4,4.4 0 0 0 0,8.79l-8.79,0a4.4,4.4 0 1 0 0,8.8l50.87,0a4.4,4.4 0 0 0 0,-8.8l8.85,0a4.4,4.4 0 1 0 0,-8.79z"/>
  <path id="svg_94" opacity="0.1" fill="#f9a826" d="m421.29,241.02l-6.28,0a4.4,4.4 0 1 0 0,-8.79l-50.89,0a4.4,4.4 0 1 0 0,8.79l6.28,0a4.4,4.4 0 1 0 0,8.79l-8.8,0a4.4,4.4 0 0 0 0,8.8l50.88,0a4.4,4.4 0 0 0 0,-8.8l8.79,0a4.4,4.4 0 1 0 0,-8.79l0.02,0z"/>
 </g>
</svg>